<?xml version="1.0" encoding="UTF-8"?>
  <svg width="1200px" height="350px" viewBox="0 0 1200 350" xmlns="http://www.w3.org/2000/svg" xmlns:xlink="http://www.w3.org/1999/xlink">
  <g transform="matrix(1 0 0 1 600 175)" id="No8XPFl6N43I0JxbnFrA7"  >
<rect style="stroke: rgb(193,193,193); stroke-width: 0; stroke-dasharray: none; stroke-linecap: round; stroke-dashoffset: 0; stroke-linejoin: miter; stroke-miterlimit: 10; fill: rgb(0,3,49); fill-rule: nonzero; opacity: 0;" vector-effect="non-scaling-stroke"  x="-600" y="-175" rx="0" ry="0" width="1200" height="350" />
</g>
<g transform="matrix(2.419588 0 0 2.419588 478.217595 220.134641)" id="LMZ3D5a3haNlwdgYaGOyv"  >
<g style="opacity: 0.1; visibility: hidden;" vector-effect="non-scaling-stroke"   >
		<g transform="matrix(1 0 0 1 0 0)" id="Layer_1-2"  >
<linearGradient id="SVGID_40_43_44" gradientUnits="objectBoundingBox" gradientTransform="matrix(0.001906 0 0 0.002303 0.000008 0.000001)"  x1="0" y1="217.16" x2="524.55" y2="217.16">
<stop offset="0%" style="stop-color:rgb(97, 152, 255);stop-opacity: 1"/>
<stop offset="100%" style="stop-color:rgb(109, 198, 255);stop-opacity: 1"/>
</linearGradient>
<path style="stroke: rgb(193,193,193); stroke-width: 0; stroke-dasharray: none; stroke-linecap: round; stroke-dashoffset: 0; stroke-linejoin: miter; stroke-miterlimit: 10; fill: url(#SVGID_40_43_44); fill-rule: nonzero; opacity: 1;" vector-effect="non-scaling-stroke"  transform=" translate(-262.268147, -217.15477)" d="M 405.76 87.57 C 405.75 87.19 405.74 86.81 405.72 86.42 C 403.77 39.26 365.10 1.23 317.91 0.03 C 303.13 -0.35 289.13 2.84 276.71 8.78 C 257.40 18.01 235.19 18.59 215.25 10.80 C 198.31 4.17 179.95 0.38 160.75 0.03 C 73.86 -1.57 0.62 69.74 0.00 156.64 C -0.62 244.30 70.26 315.56 157.78 315.56 C 161.73 315.56 165.65 315.41 169.53 315.13 C 199.72 312.91 228.59 328.28 242.83 354.99 C 267.99 402.19 317.71 434.31 374.93 434.31 C 457.84 434.31 525.89 365.09 524.52 282.19 C 523.60 226.45 492.20 178.12 446.26 153.16 C 422.02 139.99 406.55 115.14 405.75 87.56 Z" stroke-linecap="round" />
</g>
</g>
</g>
<g transform="matrix(0.445015 0.193937 -0.193937 0.445015 195.60104 182.249173)" id="4_XqFHbnB0ZDStZDpSPVS"  >
<g style="opacity: 0.6;" vector-effect="non-scaling-stroke"   >
		<g transform="matrix(1 0 0 1 0 0)" id="Layer_1-2"  >
<linearGradient id="SVGID_41_45_46" gradientUnits="objectBoundingBox" gradientTransform="matrix(0.001507 0 0 0.001568 0 0)"  x1="0" y1="318.83" x2="663.41" y2="318.83">
<stop offset="0%" style="stop-color:rgb(97, 152, 255);stop-opacity: 1"/>
<stop offset="100%" style="stop-color:rgb(109, 198, 255);stop-opacity: 1"/>
</linearGradient>
<path style="stroke: rgb(193,193,193); stroke-width: 0; stroke-dasharray: none; stroke-linecap: round; stroke-dashoffset: 0; stroke-linejoin: miter; stroke-miterlimit: 10; fill: url(#SVGID_41_45_46); fill-rule: nonzero; opacity: 1;" vector-effect="non-scaling-stroke"  transform=" translate(-331.702312, -318.83)" d="M 663.40 315.04 C 664.13 421.15 578.34 507.40 472.40 507.40 C 471.14 507.40 469.88 507.39 468.62 507.36 C 421.22 506.44 375.15 524.88 341.85 558.62 C 316.33 584.47 280.70 600.31 241.37 599.72 C 167.53 598.60 107.13 538.76 105.36 464.93 C 105.35 464.35 105.34 463.77 105.33 463.19 C 104.83 419.93 88.49 378.20 58.68 346.84 C 26.21 312.69 6.25 266.55 6.13 215.75 C 5.87 110.20 91.59 24.27 197.13 24.27 C 248.45 24.27 295.04 44.51 329.35 77.45 C 364.52 111.21 412.06 128.68 460.72 125.74 C 465.33 125.46 469.98 125.35 474.68 125.40 C 578.32 126.61 662.69 211.40 663.40 315.04 Z M 452.39 551.28 C 428.54 551.28 409.20 570.62 409.20 594.47 C 409.20 618.32 428.54 637.66 452.39 637.66 C 476.24 637.66 495.58 618.32 495.58 594.47 C 495.58 570.62 476.24 551.28 452.39 551.28 Z M 23.54 401.24 C 10.54 401.24 0.00 411.78 0.00 424.78 C 0.00 437.78 10.54 448.32 23.54 448.32 C 36.54 448.32 47.08 437.78 47.08 424.78 C 47.08 411.78 36.54 401.24 23.54 401.24 Z M 372.17 47.08 C 385.17 47.08 395.71 36.54 395.71 23.54 C 395.71 10.54 385.17 0.00 372.17 0.00 C 359.17 0.00 348.63 10.54 348.63 23.54 C 348.63 36.54 359.17 47.08 372.17 47.08 Z" stroke-linecap="round" />
</g>
</g>
</g>
<g transform="matrix(0.57002 0.420921 -0.336643 0.455889 226.518957 146.396413)" id="bLgWZYTQH-UB-fFj11RJM"  >
<g style="opacity: 0.6;" vector-effect="non-scaling-stroke"   >
		<g transform="matrix(1 0 0 1 0 0)" id="Layer_1-2"  >
<linearGradient id="SVGID_42_47_48" gradientUnits="objectBoundingBox" gradientTransform="matrix(0.003565 0 0 0.001804 -0.000016 0.000004)"  x1="0" y1="277.19" x2="280.49" y2="277.19">
<stop offset="0%" style="stop-color:rgb(109, 198, 255);stop-opacity: 1"/>
<stop offset="100%" style="stop-color:rgb(97, 152, 255);stop-opacity: 1"/>
</linearGradient>
<path style="stroke: rgb(193,193,193); stroke-width: 0; stroke-dasharray: none; stroke-linecap: round; stroke-dashoffset: 0; stroke-linejoin: miter; stroke-miterlimit: 10; fill: url(#SVGID_42_47_48); fill-rule: nonzero; opacity: 1;" vector-effect="non-scaling-stroke"  transform=" translate(-140.245507, -277.18399)" d="M 279.49 97.89 C 287.28 151.75 247.31 215.09 232.07 255.39 C 216.83 295.36 226.31 312.63 231.39 349.55 C 236.81 386.13 237.49 442.70 205.99 488.09 C 174.15 533.48 110.13 568.03 68.47 549.06 C 26.47 530.43 7.17 458.62 1.75 401.72 C -3.67 344.82 5.14 302.81 6.49 253.02 C 7.84 203.57 1.41 146.32 25.80 95.52 C 50.52 44.37 105.73 0.00 160.94 0.00 C 216.49 -0.34 271.70 44.03 279.49 97.89 Z" stroke-linecap="round" />
</g>
</g>
</g>
<g transform="matrix(1 0 0 1 0 0)" id="hgqh5kSKq-GccV1l_vDqr"  >
<path style="stroke: rgb(114,114,114); stroke-width: 0; stroke-dasharray: none; stroke-linecap: round; stroke-dashoffset: 0; stroke-linejoin: round; stroke-miterlimit: 10; fill: rgb(114,114,114); fill-rule: nonzero; opacity: 1; visibility: hidden;" vector-effect="non-scaling-stroke"  transform=" translate(0, 0)" d="" stroke-linecap="round" />
</g>
<g transform="matrix(1 0 0 1 226.493964 161.310652)" id="6AO28k3OeI2DU46H5mdmj"  >
<g style=" visibility: hidden;" vector-effect="non-scaling-stroke"   >
		<g transform="matrix(1 0 0 1 0 0)" id="Gwr4glJ3qnc41TVkMIppR"  >
<path style="stroke: rgb(193,193,193); stroke-width: 0; stroke-dasharray: none; stroke-linecap: round; stroke-dashoffset: 0; stroke-linejoin: miter; stroke-miterlimit: 10; fill: rgb(0,3,49); fill-rule: nonzero; opacity: 1;" vector-effect="non-scaling-stroke"  transform=" translate(-53.325007, 49.315)" d="M 47.73 -98.63 C 55.88 -98.63 63.28 -96.90 69.95 -93.45 C 76.61 -90.00 81.90 -84.97 85.83 -78.36 C 89.76 -71.75 91.73 -63.93 91.73 -54.92 L 91.73 -43.71 C 91.73 -34.70 89.76 -26.88 85.83 -20.27 C 81.90 -13.66 76.61 -8.63 69.95 -5.18 C 63.28 -1.73 55.88 0.00 47.73 0.00 L 10.35 0.00 L 10.35 -98.63 z M 32.64 -17.68 L 47.73 -17.68 C 53.86 -17.68 58.85 -19.67 62.69 -23.65 C 66.52 -27.63 68.44 -33.26 68.44 -40.54 L 68.44 -58.08 C 68.44 -65.37 66.52 -71.00 62.69 -74.98 C 58.85 -78.96 53.86 -80.95 47.73 -80.95 L 32.64 -80.95 z" stroke-linecap="round" />
</g>
</g>
</g>
<g transform="matrix(1 0 0 1 0 0)" id="FthEXFRugaahs2bvjWAkq"  >
<path style="stroke: rgb(193,193,193); stroke-width: 0; stroke-dasharray: none; stroke-linecap: round; stroke-dashoffset: 0; stroke-linejoin: miter; stroke-miterlimit: 10; fill: rgb(114,114,114); fill-rule: nonzero; opacity: 1; visibility: hidden;" vector-effect="non-scaling-stroke"  transform=" translate(0, 0)" d="" stroke-linecap="round" />
</g>
<g transform="matrix(1 0 0 1 0 0)" id="Tlx8RXXNd9L-AQcKLfrZc"  >
<path style="stroke: rgb(193,193,193); stroke-width: 0; stroke-dasharray: none; stroke-linecap: round; stroke-dashoffset: 0; stroke-linejoin: miter; stroke-miterlimit: 10; fill: rgb(193,193,193); fill-rule: nonzero; opacity: 1; visibility: hidden;" vector-effect="non-scaling-stroke"  transform=" translate(0, 0)" d="" stroke-linecap="round" />
</g>
<g transform="matrix(1 0 0 1 5.274721 -0.865632)" id="i4D5cSahwkWP_xvD86oq4"  >
<path style="stroke: rgb(114,114,114); stroke-width: 0; stroke-dasharray: none; stroke-linecap: round; stroke-dashoffset: 0; stroke-linejoin: round; stroke-miterlimit: 10; fill: rgb(114,114,114); fill-rule: nonzero; opacity: 1;" vector-effect="non-scaling-stroke"  transform=" translate(0, 0)" d="" stroke-linecap="round" />
</g>
<g transform="matrix(1 0 0 1 731.740894 265.738716)" id="Op2qHPFqm6KvFEKdxdGPp"  >
<g vector-effect="non-scaling-stroke"   >
		<g transform="matrix(1 0 0 1 0 0)" id="V2xTEiRUvvm2Go8kes7tT"  >
<path style="stroke: rgb(193,193,193); stroke-width: 0; stroke-dasharray: none; stroke-linecap: round; stroke-dashoffset: 0; stroke-linejoin: miter; stroke-miterlimit: 10; fill: rgb(92,90,90); fill-rule: nonzero; opacity: 1;" vector-effect="non-scaling-stroke"  transform=" translate(-329.545399, 11.045)" d="M 27.24 -22.09 L 27.24 0.00 L 24.09 0.00 L 24.09 -18.39 L 23.90 -18.39 L 16.26 0.00 L 13.59 0.00 L 5.99 -18.39 L 5.83 -18.39 L 5.83 0.00 L 2.96 0.00 L 2.96 -22.09 L 7.92 -22.09 L 15.04 -4.70 L 15.17 -4.70 L 22.32 -22.09 z M 50.27 -22.09 L 58.90 0.00 L 55.49 0.00 L 53.62 -4.80 L 43.06 -4.80 L 41.22 0.00 L 38.16 0.00 L 46.79 -22.09 z M 48.47 -18.29 L 48.27 -18.29 L 44.18 -7.66 L 52.52 -7.66 z M 76.97 -22.41 C 79.40 -22.41 81.30 -21.87 82.68 -20.80 C 84.07 -19.73 84.76 -18.20 84.76 -16.23 L 84.76 -15.84 L 81.61 -15.84 L 81.61 -16.33 C 81.61 -17.36 81.19 -18.15 80.35 -18.71 C 79.51 -19.27 78.40 -19.55 77.03 -19.55 C 75.51 -19.55 74.32 -19.30 73.47 -18.79 C 72.62 -18.28 72.20 -17.56 72.20 -16.62 C 72.20 -15.91 72.44 -15.33 72.93 -14.88 C 73.41 -14.43 74.01 -14.07 74.73 -13.82 C 75.45 -13.56 76.44 -13.27 77.71 -12.95 C 79.34 -12.52 80.66 -12.10 81.67 -11.69 C 82.68 -11.28 83.54 -10.67 84.26 -9.85 C 84.98 -9.04 85.34 -7.95 85.34 -6.60 C 85.34 -4.19 84.61 -2.44 83.14 -1.34 C 81.67 -0.23 79.60 0.32 76.94 0.32 C 74.27 0.32 72.21 -0.24 70.74 -1.37 C 69.27 -2.50 68.53 -4.13 68.53 -6.28 L 68.56 -6.92 L 71.72 -6.92 L 71.69 -6.25 C 71.69 -5.00 72.16 -4.07 73.09 -3.46 C 74.02 -2.85 75.32 -2.54 76.97 -2.54 C 78.58 -2.54 79.85 -2.84 80.78 -3.43 C 81.72 -4.02 82.19 -4.83 82.19 -5.86 C 82.19 -6.67 81.94 -7.33 81.43 -7.84 C 80.92 -8.35 80.29 -8.74 79.53 -9.02 C 78.76 -9.30 77.73 -9.61 76.42 -9.95 C 74.81 -10.38 73.53 -10.79 72.56 -11.17 C 71.59 -11.56 70.77 -12.15 70.08 -12.96 C 69.39 -13.77 69.05 -14.82 69.05 -16.13 C 69.05 -18.26 69.77 -19.84 71.20 -20.87 C 72.64 -21.90 74.56 -22.41 76.97 -22.41 z M 112.68 -22.09 L 112.68 -19.23 L 105.76 -19.23 L 105.76 0.00 L 102.60 0.00 L 102.60 -19.23 L 95.68 -19.23 L 95.68 -22.09 z M 138.77 -22.09 L 138.35 -19.23 L 127.43 -19.23 L 127.43 -12.72 L 137.32 -12.72 L 137.32 -9.85 L 127.43 -9.85 L 127.43 -2.87 L 138.54 -2.87 L 138.99 -0.00 L 124.28 -0.00 L 124.28 -22.09 z M 160.60 -22.09 C 162.55 -22.09 164.16 -21.63 165.42 -20.71 C 166.67 -19.78 167.30 -18.52 167.30 -16.91 C 167.30 -15.47 166.92 -14.25 166.16 -13.24 C 165.39 -12.23 164.45 -11.61 163.34 -11.40 L 163.34 -11.24 C 164.37 -10.83 165.22 -10.12 165.88 -9.11 C 166.55 -8.10 166.88 -6.89 166.88 -5.47 C 166.88 -4.29 166.95 -3.40 167.08 -2.80 C 167.21 -2.20 167.38 -1.78 167.59 -1.55 C 167.80 -1.31 168.11 -1.13 168.52 -1.00 L 168.52 -0.10 C 168.05 0.09 167.55 0.19 167.01 0.19 C 165.98 0.19 165.17 -0.11 164.60 -0.72 C 164.02 -1.33 163.73 -2.49 163.73 -4.19 C 163.73 -5.93 163.37 -7.29 162.65 -8.26 C 161.93 -9.24 161.03 -9.73 159.96 -9.73 L 154.35 -9.73 L 154.35 0.00 L 151.20 0.00 L 151.20 -22.09 z M 154.35 -19.23 L 154.35 -12.59 L 160.63 -12.59 C 161.56 -12.59 162.37 -12.90 163.08 -13.53 C 163.79 -14.15 164.14 -14.92 164.14 -15.84 L 164.14 -15.97 C 164.14 -16.92 163.82 -17.70 163.18 -18.31 C 162.53 -18.92 161.68 -19.23 160.63 -19.23 z M 196.19 -22.09 L 188.43 -8.53 L 188.43 0.00 L 185.27 0.00 L 185.27 -8.53 L 177.48 -22.09 L 181.08 -22.09 L 186.98 -11.82 L 187.11 -11.82 L 192.94 -22.09 z M 229.68 -22.41 C 232.11 -22.41 234.01 -21.87 235.40 -20.80 C 236.78 -19.73 237.47 -18.20 237.47 -16.23 L 237.47 -15.84 L 234.32 -15.84 L 234.32 -16.33 C 234.32 -17.36 233.90 -18.15 233.06 -18.71 C 232.23 -19.27 231.12 -19.55 229.74 -19.55 C 228.22 -19.55 227.04 -19.30 226.19 -18.79 C 225.34 -18.28 224.91 -17.56 224.91 -16.62 C 224.91 -15.91 225.15 -15.33 225.64 -14.88 C 226.12 -14.43 226.72 -14.07 227.44 -13.82 C 228.16 -13.56 229.15 -13.27 230.42 -12.95 C 232.05 -12.52 233.37 -12.10 234.38 -11.69 C 235.39 -11.28 236.26 -10.67 236.97 -9.85 C 237.69 -9.04 238.05 -7.95 238.05 -6.60 C 238.05 -4.19 237.32 -2.44 235.85 -1.34 C 234.38 -0.23 232.31 0.32 229.65 0.32 C 226.98 0.32 224.92 -0.24 223.45 -1.37 C 221.98 -2.50 221.24 -4.13 221.24 -6.28 L 221.27 -6.92 L 224.43 -6.92 L 224.40 -6.25 C 224.40 -5.00 224.87 -4.07 225.80 -3.46 C 226.73 -2.85 228.03 -2.54 229.68 -2.54 C 231.29 -2.54 232.57 -2.84 233.50 -3.43 C 234.43 -4.02 234.90 -4.83 234.90 -5.86 C 234.90 -6.67 234.65 -7.33 234.14 -7.84 C 233.63 -8.35 233.00 -8.74 232.24 -9.02 C 231.48 -9.30 230.44 -9.61 229.13 -9.95 C 227.52 -10.38 226.24 -10.79 225.27 -11.17 C 224.30 -11.56 223.48 -12.15 222.79 -12.96 C 222.10 -13.77 221.76 -14.82 221.76 -16.13 C 221.76 -18.26 222.48 -19.84 223.92 -20.87 C 225.35 -21.90 227.27 -22.41 229.68 -22.41 z M 266.94 -22.09 L 258.82 -12.33 L 267.20 0.00 L 263.53 0.00 L 256.83 -9.92 L 253.70 -6.63 L 253.70 0.00 L 250.55 0.00 L 250.55 -22.09 L 253.70 -22.09 L 253.70 -10.60 L 263.30 -22.09 z M 285.49 -22.09 L 285.49 -19.23 L 282.91 -19.23 L 282.91 -2.87 L 285.49 -2.87 L 285.49 -0.00 L 277.18 -0.00 L 277.18 -2.87 L 279.76 -2.87 L 279.76 -19.23 L 277.18 -19.23 L 277.18 -22.09 z M 301.14 -22.09 L 301.14 -2.87 L 311.29 -2.87 L 311.74 -0.00 L 297.99 -0.00 L 297.99 -22.09 z M 326.23 -22.09 L 326.23 -2.87 L 336.37 -2.87 L 336.82 -0.00 L 323.07 -0.00 L 323.07 -22.09 z M 378.69 -22.09 L 378.69 -19.23 L 371.76 -19.23 L 371.76 0.00 L 368.61 0.00 L 368.61 -19.23 L 361.68 -19.23 L 361.68 -22.09 z M 399.69 -22.09 C 401.64 -22.09 403.25 -21.63 404.50 -20.71 C 405.75 -19.78 406.38 -18.52 406.38 -16.91 C 406.38 -15.47 406.00 -14.25 405.24 -13.24 C 404.48 -12.23 403.54 -11.61 402.42 -11.40 L 402.42 -11.24 C 403.45 -10.83 404.30 -10.12 404.97 -9.11 C 405.64 -8.10 405.97 -6.89 405.97 -5.47 C 405.97 -4.29 406.03 -3.40 406.16 -2.80 C 406.29 -2.20 406.46 -1.78 406.67 -1.55 C 406.89 -1.31 407.20 -1.13 407.61 -1.00 L 407.61 -0.10 C 407.14 0.09 406.63 0.19 406.09 0.19 C 405.06 0.19 404.26 -0.11 403.68 -0.72 C 403.10 -1.33 402.81 -2.49 402.81 -4.19 C 402.81 -5.93 402.45 -7.29 401.73 -8.26 C 401.01 -9.24 400.11 -9.73 399.04 -9.73 L 393.44 -9.73 L 393.44 0.00 L 390.28 0.00 L 390.28 -22.09 z M 393.44 -19.23 L 393.44 -12.59 L 399.72 -12.59 C 400.64 -12.59 401.46 -12.90 402.17 -13.53 C 402.88 -14.15 403.23 -14.92 403.23 -15.84 L 403.23 -15.97 C 403.23 -16.92 402.91 -17.70 402.26 -18.31 C 401.62 -18.92 400.77 -19.23 399.72 -19.23 z M 428.96 -22.09 L 437.59 0.00 L 434.18 0.00 L 432.31 -4.80 L 421.75 -4.80 L 419.91 0.00 L 416.85 0.00 L 425.48 -22.09 z M 427.16 -18.29 L 426.96 -18.29 L 422.87 -7.66 L 431.21 -7.66 z M 455.56 -22.09 L 455.56 -19.23 L 452.98 -19.23 L 452.98 -2.87 L 455.56 -2.87 L 455.56 -0.00 L 447.25 -0.00 L 447.25 -2.87 L 449.83 -2.87 L 449.83 -19.23 L 447.25 -19.23 L 447.25 -22.09 z M 484.48 -22.09 L 484.48 0.00 L 481.81 0.00 L 471.02 -16.17 L 470.92 -16.13 L 470.92 -0.00 L 468.06 -0.00 L 468.06 -22.09 L 470.82 -22.09 L 481.52 -6.12 L 481.61 -6.15 L 481.61 -22.09 z M 505.28 -22.09 L 505.28 -19.23 L 502.71 -19.23 L 502.71 -2.87 L 505.28 -2.87 L 505.28 -0.00 L 496.97 -0.00 L 496.97 -2.87 L 499.55 -2.87 L 499.55 -19.23 L 496.97 -19.23 L 496.97 -22.09 z M 534.20 -22.09 L 534.20 0.00 L 531.53 0.00 L 520.74 -16.17 L 520.64 -16.13 L 520.64 -0.00 L 517.78 -0.00 L 517.78 -22.09 L 520.55 -22.09 L 531.24 -6.12 L 531.34 -6.15 L 531.34 -22.09 z M 556.07 -22.41 C 557.79 -22.41 559.29 -22.08 560.56 -21.42 C 561.84 -20.75 562.82 -19.81 563.51 -18.58 C 564.20 -17.36 564.54 -15.94 564.54 -14.33 L 561.38 -14.33 C 561.38 -15.98 560.92 -17.27 560.01 -18.18 C 559.10 -19.09 557.79 -19.55 556.07 -19.55 C 554.14 -19.55 552.67 -18.95 551.66 -17.76 C 550.65 -16.57 550.14 -14.81 550.14 -12.50 L 550.14 -9.60 C 550.14 -7.28 550.64 -5.52 551.64 -4.33 C 552.64 -3.14 554.12 -2.54 556.07 -2.54 C 557.94 -2.54 559.30 -3.01 560.16 -3.95 C 561.02 -4.88 561.45 -6.37 561.45 -8.41 L 561.45 -8.82 L 555.20 -8.82 L 555.20 -11.66 L 564.54 -11.66 L 564.54 -4.12 C 564.54 -2.34 564.60 -0.97 564.73 -0.00 L 562.86 -0.00 C 562.59 -0.88 562.37 -1.76 562.22 -2.64 C 560.83 -0.67 558.78 0.32 556.07 0.32 C 553.22 0.32 550.99 -0.55 549.39 -2.30 C 547.79 -4.05 546.99 -6.49 546.99 -9.60 L 546.99 -12.50 C 546.99 -15.59 547.79 -18.01 549.39 -19.77 C 550.99 -21.53 553.22 -22.41 556.07 -22.41 z" stroke-linecap="round" />
</g>
</g>
</g>
<g transform="matrix(1 0 0 1 5.274721 -0.865632)" id="AdkQOp3dsZeaGXWTOo8W3"  >
<path style="stroke: rgb(193,193,193); stroke-width: 0; stroke-dasharray: none; stroke-linecap: round; stroke-dashoffset: 0; stroke-linejoin: miter; stroke-miterlimit: 10; fill: rgb(114,114,114); fill-rule: nonzero; opacity: 1;" vector-effect="non-scaling-stroke"  transform=" translate(0, 0)" d="" stroke-linecap="round" />
</g>
<g transform="matrix(1 0 0 1 5.274721 -0.865632)" id="13Q0xfcChsHxD-RLAUyUl"  >
<path style="stroke: rgb(193,193,193); stroke-width: 0; stroke-dasharray: none; stroke-linecap: round; stroke-dashoffset: 0; stroke-linejoin: miter; stroke-miterlimit: 10; fill: rgb(193,193,193); fill-rule: nonzero; opacity: 1;" vector-effect="non-scaling-stroke"  transform=" translate(0, 0)" d="" stroke-linecap="round" />
</g>
<g transform="matrix(1 0 0 1 0 0)" id="ndx5_SfDGsfpv7YcQES1H"  >
<path style="stroke: rgb(114,114,114); stroke-width: 0; stroke-dasharray: none; stroke-linecap: round; stroke-dashoffset: 0; stroke-linejoin: round; stroke-miterlimit: 10; fill: rgb(114,114,114); fill-rule: nonzero; opacity: 1;" vector-effect="non-scaling-stroke"  transform=" translate(0, 0)" d="" stroke-linecap="round" />
</g>
<g transform="matrix(1 0 0 1 789.694227 160.995652)" id="7V1RSilhaSwgq97RaliIU"  >
<g vector-effect="non-scaling-stroke"   >
		<g transform="matrix(1 0 0 1 0 0)" id="Q3eYSKMOvCHZk6t37bQhq"  >
<path style="stroke: rgb(193,193,193); stroke-width: 0; stroke-dasharray: none; stroke-linecap: round; stroke-dashoffset: 0; stroke-linejoin: miter; stroke-miterlimit: 10; fill: rgb(4,135,217); fill-rule: nonzero; opacity: 1;" vector-effect="non-scaling-stroke"  transform=" translate(-391.338732, 72.675)" d="M 6.80 -153.76 L 49.23 -153.76 C 60.20 -153.76 68.44 -150.72 73.93 -144.63 C 79.42 -138.54 82.22 -129.53 82.34 -117.60 L 82.70 -45.64 C 82.82 -30.49 80.19 -19.09 74.82 -11.46 C 69.45 -3.82 60.56 0.00 48.15 0.00 L 6.80 0.00 z M 43.14 -27.21 C 48.75 -27.21 51.55 -29.95 51.55 -35.44 L 51.55 -114.74 C 51.55 -118.20 51.28 -120.80 50.75 -122.53 C 50.21 -124.26 49.22 -125.42 47.79 -126.02 C 46.36 -126.61 44.16 -126.91 41.17 -126.91 L 37.77 -126.91 L 37.77 -27.21 z M 94.33 -139.80 L 94.33 -161.64 L 125.66 -161.64 L 125.66 -139.80 z M 94.33 0.00 L 94.33 -131.03 L 125.66 -131.03 L 125.66 0.00 z M 154.66 0.00 L 133.71 -131.03 L 165.04 -131.03 L 171.48 -64.80 L 172.56 -43.50 L 173.81 -64.98 L 180.97 -131.03 L 212.29 -131.03 L 190.99 0.00 z M 257.22 1.43 C 243.74 1.43 234.07 -2.27 228.22 -9.67 C 222.37 -17.06 219.45 -28.10 219.45 -42.78 L 219.45 -95.41 C 219.45 -107.46 222.91 -116.65 229.84 -122.97 C 236.76 -129.30 246.42 -132.46 258.83 -132.46 C 284.01 -132.46 296.60 -120.11 296.60 -95.41 L 296.60 -85.92 C 296.60 -76.37 296.48 -68.62 296.25 -62.65 L 250.78 -62.65 L 250.78 -37.23 C 250.78 -32.70 251.26 -29.15 252.21 -26.58 C 253.16 -24.01 255.19 -22.73 258.30 -22.73 C 260.69 -22.73 262.39 -23.45 263.40 -24.88 C 264.41 -26.31 265.01 -27.95 265.19 -29.80 C 265.37 -31.65 265.46 -34.37 265.46 -37.95 L 265.46 -50.66 L 296.60 -50.66 L 296.60 -43.14 C 296.60 -27.87 293.65 -16.62 287.74 -9.40 C 281.83 -2.18 271.66 1.43 257.22 1.43 z M 265.46 -78.22 L 265.46 -95.05 C 265.46 -104.48 263.13 -109.19 258.48 -109.19 C 253.23 -109.19 250.60 -104.48 250.60 -95.05 L 250.60 -78.22 z M 307.88 -131.03 L 339.21 -131.03 L 339.21 -116.53 C 340.76 -121.66 343.47 -125.63 347.35 -128.43 C 351.23 -131.24 356.03 -132.64 361.76 -132.64 L 361.76 -106.50 C 357.35 -106.50 352.48 -105.88 347.17 -104.63 C 341.86 -103.38 339.21 -101.91 339.21 -100.24 L 339.21 -0.00 L 307.88 -0.00 z M 405.43 1.43 C 379.54 1.43 366.59 -11.70 366.59 -37.95 L 366.77 -48.33 L 398.10 -48.33 L 398.28 -32.94 C 398.28 -29.83 398.87 -27.48 400.06 -25.87 C 401.25 -24.26 403.22 -23.45 405.97 -23.45 C 410.15 -23.45 412.24 -26.85 412.24 -33.65 C 412.24 -38.66 411.25 -42.60 409.28 -45.47 C 407.31 -48.33 404.18 -51.37 399.89 -54.59 L 383.24 -67.48 C 377.51 -71.90 373.40 -76.47 370.89 -81.18 C 368.38 -85.89 367.13 -92.54 367.13 -101.13 C 367.13 -107.82 368.89 -113.52 372.41 -118.23 C 375.93 -122.94 380.61 -126.49 386.46 -128.88 C 392.31 -131.27 398.81 -132.46 405.97 -132.46 C 431.39 -132.46 444.10 -119.81 444.10 -94.51 L 444.10 -92.01 L 411.70 -92.01 L 411.70 -97.02 C 411.70 -100.12 411.19 -102.77 410.18 -104.98 C 409.17 -107.19 407.47 -108.29 405.08 -108.29 C 402.93 -108.29 401.28 -107.67 400.15 -106.42 C 399.02 -105.17 398.45 -103.46 398.45 -101.31 C 398.45 -96.54 400.30 -92.84 404.00 -90.22 L 423.34 -76.07 C 430.26 -70.94 435.57 -65.37 439.27 -59.34 C 442.96 -53.31 444.81 -45.71 444.81 -36.52 C 444.81 -24.35 441.35 -14.98 434.43 -8.41 C 427.51 -1.85 417.84 1.43 405.43 1.43 z M 491.18 1.43 C 477.69 1.43 468.03 -2.27 462.18 -9.67 C 456.33 -17.06 453.41 -28.10 453.41 -42.78 L 453.41 -95.41 C 453.41 -107.46 456.87 -116.65 463.79 -122.97 C 470.71 -129.30 480.38 -132.46 492.79 -132.46 C 517.97 -132.46 530.56 -120.11 530.56 -95.41 L 530.56 -85.92 C 530.56 -76.37 530.44 -68.62 530.20 -62.65 L 484.73 -62.65 L 484.73 -37.23 C 484.73 -32.70 485.21 -29.15 486.16 -26.58 C 487.12 -24.01 489.15 -22.73 492.25 -22.73 C 494.64 -22.73 496.34 -23.45 497.35 -24.88 C 498.36 -26.31 498.96 -27.95 499.14 -29.80 C 499.32 -31.65 499.41 -34.37 499.41 -37.95 L 499.41 -50.66 L 530.56 -50.66 L 530.56 -43.14 C 530.56 -27.87 527.61 -16.62 521.70 -9.40 C 515.79 -2.18 505.62 1.43 491.18 1.43 z M 499.41 -78.22 L 499.41 -95.05 C 499.41 -104.48 497.08 -109.19 492.43 -109.19 C 487.18 -109.19 484.55 -104.48 484.55 -95.05 L 484.55 -78.22 z M 540.94 0.00 L 540.94 -153.76 L 570.65 -153.76 L 570.65 0.00 z M 626.50 0.18 C 621.97 1.01 619.40 1.43 618.80 1.43 C 606.39 1.43 596.97 -2.12 590.52 -9.22 C 584.08 -16.32 580.86 -26.73 580.86 -40.45 L 580.86 -114.74 C 580.86 -127.99 584.11 -138.04 590.61 -144.90 C 597.12 -151.76 606.51 -155.19 618.80 -155.19 C 631.09 -155.19 640.49 -151.76 647.00 -144.90 C 653.50 -138.04 656.75 -127.99 656.75 -114.74 L 656.75 -40.45 C 656.75 -27.80 653.89 -17.78 648.16 -10.38 L 661.41 -1.97 L 651.02 16.29 z M 618.80 -26.85 C 621.79 -26.85 623.70 -28.28 624.53 -31.15 C 625.36 -34.01 625.78 -37.71 625.78 -42.24 L 625.78 -114.20 C 625.78 -118.14 625.27 -121.24 624.26 -123.51 C 623.25 -125.78 621.37 -126.91 618.62 -126.91 C 613.73 -126.91 611.29 -122.73 611.29 -114.38 L 611.29 -41.71 C 611.29 -37.41 611.77 -33.86 612.72 -31.06 C 613.67 -28.25 615.70 -26.85 618.80 -26.85 z" stroke-linecap="round" />
</g>
</g>
</g>
<g transform="matrix(1 0 0 1 0 0)" id="ywwi0KaDIA8-reOQmuQ27"  >
<path style="stroke: rgb(193,193,193); stroke-width: 0; stroke-dasharray: none; stroke-linecap: round; stroke-dashoffset: 0; stroke-linejoin: miter; stroke-miterlimit: 10; fill: rgb(114,114,114); fill-rule: nonzero; opacity: 1;" vector-effect="non-scaling-stroke"  transform=" translate(0, 0)" d="" stroke-linecap="round" />
</g>
<g transform="matrix(1 0 0 1 0 0)" id="nx_PlT-2C028nkP7WKklX"  >
<path style="stroke: rgb(193,193,193); stroke-width: 0; stroke-dasharray: none; stroke-linecap: round; stroke-dashoffset: 0; stroke-linejoin: miter; stroke-miterlimit: 10; fill: rgb(193,193,193); fill-rule: nonzero; opacity: 1;" vector-effect="non-scaling-stroke"  transform=" translate(0, 0)" d="" stroke-linecap="round" />
</g>
<g transform="matrix(0.226225 0 0 0.226225 218.061928 161.184684)" id="2DEa9z_M3iOlp-zPKP7rp"  >
<g style="" vector-effect="non-scaling-stroke"   >
		<g transform="matrix(1 0 0 1 0 0)" id="Layer_1-2"  >
<path style="stroke: rgb(193,193,193); stroke-width: 0; stroke-dasharray: none; stroke-linecap: round; stroke-dashoffset: 0; stroke-linejoin: miter; stroke-miterlimit: 10; fill: rgb(255,255,255); fill-rule: nonzero; opacity: 1;" vector-effect="non-scaling-stroke"  transform=" translate(-444.036187, -513.7)" d="M 277.90 404.00 C 291.40 410.60 303.30 418.70 313.60 427.60 C 324.00 436.50 332.80 446.30 340.30 456.00 C 347.80 465.70 354.00 475.60 359.00 484.80 C 364.00 494.00 367.90 502.40 370.70 509.40 C 372.20 513.20 374.30 516.60 376.80 519.70 C 379.30 522.80 382.20 525.40 385.40 527.50 C 388.60 529.60 392.20 531.40 395.90 532.50 C 399.60 533.60 403.60 534.30 407.70 534.30 C 411.80 534.30 415.70 533.70 419.50 532.50 C 423.30 531.30 426.80 529.70 430.00 527.50 C 433.20 525.30 436.10 522.70 438.60 519.70 C 441.10 516.70 443.10 513.20 444.70 509.40 C 447.60 502.40 451.40 493.90 456.40 484.80 C 461.40 475.70 467.60 465.80 475.10 456.00 C 482.60 446.20 491.50 436.50 501.80 427.60 C 512.20 418.70 524.00 410.60 537.50 404.00 C 561.50 392.40 584.30 386.80 605.10 385.00 C 625.90 383.20 644.70 385.30 660.60 388.80 C 676.50 392.30 689.50 397.40 698.70 401.80 C 707.90 406.20 713.40 409.70 714.20 410.20 L 720.50 414.50 L 726.80 418.80 L 733.10 423.10 L 739.40 427.40 L 738.60 419.80 L 737.80 412.20 L 737.00 404.60 L 736.20 397.00 C 734.90 384.50 732.50 371.00 729.10 357.00 C 725.70 343.00 721.40 328.50 716.30 314.20 C 711.20 299.90 705.40 285.60 699.10 272.10 C 692.80 258.60 685.90 245.80 678.70 234.40 C 678.40 233.90 678.00 233.30 677.70 232.80 C 677.40 232.30 677.00 231.70 676.70 231.20 C 676.40 230.70 676.00 230.10 675.60 229.60 C 675.20 229.10 674.90 228.50 674.50 228.00 C 687.10 204.10 693.40 179.30 695.90 155.50 C 698.40 131.70 696.90 108.80 693.90 88.80 C 690.90 68.80 686.10 51.60 682.10 39.10 C 678.10 26.60 674.60 18.90 674.10 17.70 L 672.20 13.30 L 670.30 8.90 L 668.40 4.50 L 666.50 0.10 L 662.90 3.30 L 659.30 6.50 L 655.70 9.70 L 652.10 12.90 C 652.10 12.90 651.00 13.80 648.40 15.50 C 645.80 17.20 641.70 19.60 635.60 22.90 C 629.50 26.20 621.30 30.20 610.70 35.00 C 600.10 39.80 586.90 45.40 570.80 51.70 C 558.20 56.60 547.50 61.60 538.30 66.60 C 529.10 71.60 521.60 76.40 515.40 81.00 C 509.20 85.60 504.30 90.00 500.40 94.00 C 496.50 98.00 493.70 101.60 491.70 104.70 C 484.90 103.00 478.00 101.50 471.10 100.20 C 464.20 98.90 457.20 97.80 450.20 96.90 C 443.20 96.00 436.20 95.30 429.10 94.80 C 422.00 94.30 415.00 94.00 407.90 93.90 L 407.90 93.90 L 407.70 93.90 C 400.60 93.90 393.50 94.30 386.50 94.80 C 379.50 95.30 372.40 96.00 365.40 96.90 C 358.40 97.80 351.50 98.90 344.50 100.20 C 337.50 101.50 330.70 103.00 323.90 104.70 C 321.80 101.60 319.00 98.00 315.20 94.00 C 311.40 90.00 306.40 85.60 300.20 81.00 C 294.00 76.40 286.40 71.50 277.30 66.60 C 268.20 61.70 257.40 56.70 244.90 51.70 C 228.80 45.40 215.70 39.80 205.00 35.00 C 194.30 30.20 186.20 26.20 180.10 22.90 C 174.00 19.60 169.90 17.20 167.30 15.50 C 164.70 13.80 163.70 13.00 163.70 13.00 L 160.10 9.80 L 156.50 6.60 L 152.90 3.40 L 149.30 0.20 L 147.30 4.60 L 145.30 9.00 L 143.30 13.40 L 141.30 17.80 C 140.80 19.00 137.30 26.80 133.20 39.20 C 129.10 51.70 124.40 68.80 121.30 88.90 C 118.20 109.00 116.80 131.80 119.30 155.60 C 121.80 179.40 128.20 204.20 140.80 228.10 C 140.40 228.60 140.10 229.20 139.70 229.70 C 139.30 230.20 139.00 230.80 138.60 231.30 C 138.20 231.80 137.90 232.40 137.60 232.90 C 137.30 233.40 136.90 234.00 136.60 234.50 C 129.40 246.00 122.50 258.70 116.20 272.20 C 109.90 285.70 104.10 299.90 99.00 314.30 C 93.90 328.60 89.60 343.10 86.20 357.10 C 82.80 371.10 80.40 384.70 79.10 397.10 L 78.30 404.70 L 77.50 412.30 L 76.70 419.90 L 75.90 427.50 L 82.20 423.20 L 88.50 418.90 L 94.80 414.60 L 101.10 410.30 C 101.30 410.20 106.40 406.80 115.50 402.50 C 124.60 398.20 137.60 393.10 153.60 389.40 C 169.60 385.70 188.60 383.50 209.60 385.20 C 230.60 386.90 253.70 392.30 277.70 404.10 Z M 290.30 378.50 C 281.70 374.30 273.30 370.80 265.00 367.90 C 256.70 365.00 248.60 362.70 240.60 360.90 C 232.60 359.10 224.90 357.90 217.30 357.10 C 209.70 356.30 202.40 355.90 195.30 355.90 C 188.20 355.90 183.50 356.20 177.80 356.60 C 172.10 357.00 166.70 357.80 161.50 358.60 C 156.30 359.40 151.30 360.50 146.50 361.60 C 141.70 362.70 137.20 364.00 132.90 365.30 C 136.70 356.80 141.20 348.80 146.20 341.30 C 151.20 333.80 156.60 326.80 162.50 320.40 C 168.40 314.00 174.60 308.40 181.20 303.60 C 187.80 298.80 194.60 294.70 201.60 291.70 C 207.90 288.90 214.30 286.90 220.70 285.70 C 227.10 284.50 233.50 284.00 239.90 284.40 C 246.30 284.80 252.80 285.80 259.30 287.70 C 265.80 289.60 272.20 292.20 278.70 295.60 C 290.00 301.50 300.20 309.70 309.30 319.20 C 318.40 328.70 326.60 339.70 333.70 351.30 C 340.80 362.90 347.10 375.20 352.40 387.40 C 357.80 399.60 362.30 411.70 366.00 423.00 C 367.00 426.00 368.00 429.00 368.90 432.00 C 369.80 435.00 370.70 437.90 371.50 440.90 C 372.30 443.90 373.10 446.70 373.90 449.50 C 374.70 452.30 375.40 455.10 376.10 457.90 C 371.70 450.80 366.60 443.60 360.90 436.30 C 355.20 429.00 348.80 421.90 341.80 415.00 C 334.80 408.10 326.90 401.40 318.40 395.30 C 309.90 389.20 300.50 383.50 290.30 378.50 Z M 525.30 378.50 C 515.10 383.40 505.80 389.10 497.20 395.30 C 488.60 401.50 480.80 408.10 473.80 415.00 C 466.80 421.90 460.40 429.10 454.70 436.30 C 449.00 443.50 444.00 450.80 439.50 457.90 C 440.20 455.20 440.90 452.40 441.70 449.50 C 442.50 446.60 443.30 443.80 444.10 440.90 C 444.90 438.00 445.80 435.00 446.70 432.00 C 447.60 429.00 448.60 426.00 449.60 423.00 C 453.30 411.70 457.80 399.60 463.20 387.40 C 468.60 375.20 474.80 362.90 481.90 351.30 C 489.00 339.70 497.20 328.70 506.30 319.20 C 515.40 309.70 525.60 301.50 536.90 295.60 C 543.40 292.20 549.80 289.60 556.30 287.70 C 562.80 285.80 569.20 284.70 575.70 284.40 C 582.20 284.10 588.60 284.50 594.90 285.70 C 601.20 286.90 607.60 288.90 614.00 291.70 C 621.00 294.80 627.90 298.80 634.40 303.60 C 640.90 308.40 647.20 314.10 653.10 320.40 C 659.00 326.70 664.40 333.70 669.40 341.30 C 674.40 348.90 678.80 356.90 682.70 365.30 C 673.30 362.40 662.70 359.90 651.10 358.20 C 639.50 356.50 626.90 355.60 613.60 356.00 C 600.20 356.40 586.00 358.20 571.20 361.70 C 556.40 365.20 541.00 370.60 525.20 378.30 Z M 160.60 249.50 C 161.20 248.50 161.90 247.40 162.60 246.40 C 163.30 245.40 163.90 244.40 164.60 243.30 C 165.30 242.20 166.00 241.30 166.70 240.30 C 167.40 239.30 168.10 238.30 168.80 237.30 L 170.10 235.20 L 171.40 233.10 L 172.70 231.00 L 174.00 228.90 L 172.90 227.00 L 171.80 225.10 L 170.70 223.20 L 169.60 221.30 C 159.90 205.00 153.90 187.80 150.50 170.70 C 147.10 153.60 146.20 136.70 146.90 120.70 C 147.60 104.70 149.80 89.80 152.60 76.80 C 155.40 63.80 158.60 52.80 161.40 44.60 C 164.70 46.40 168.50 48.50 173.10 50.80 C 177.70 53.10 182.90 55.60 188.80 58.40 C 194.70 61.20 201.50 64.10 209.10 67.40 C 216.70 70.70 225.10 74.10 234.50 77.70 C 247.90 82.90 258.70 88.20 267.40 93.10 C 276.10 98.00 282.70 102.70 287.70 106.90 C 292.70 111.10 296.00 114.60 298.20 117.30 C 300.40 120.00 301.50 121.90 301.90 122.70 L 301.90 122.70 L 303.50 126.50 L 305.10 130.30 L 306.70 134.10 L 308.30 137.90 L 311.30 137.10 L 314.30 136.30 L 317.30 135.50 L 320.30 134.70 C 327.40 132.70 334.50 130.90 341.70 129.40 C 348.90 127.90 356.20 126.60 363.50 125.50 C 370.80 124.40 378.10 123.60 385.50 123.10 C 392.90 122.60 400.30 122.20 407.70 122.10 C 415.10 122.10 422.50 122.50 429.90 123.10 C 437.30 123.70 444.60 124.50 451.90 125.60 C 459.20 126.70 466.50 128.00 473.70 129.50 C 480.90 131.00 488.10 132.80 495.20 134.80 L 498.30 135.70 L 501.40 136.60 L 504.50 137.50 L 507.60 138.40 L 509.00 134.70 L 510.40 131.00 L 511.80 127.30 L 513.20 123.60 L 513.20 123.60 L 513.20 123.20 L 513.40 123.00 C 513.70 122.30 514.70 120.50 516.80 117.80 C 518.90 115.10 522.20 111.50 527.20 107.40 C 532.20 103.30 538.80 98.50 547.50 93.50 C 556.20 88.50 567.20 83.20 580.80 77.80 C 590.20 74.10 598.60 70.70 606.20 67.50 C 613.80 64.30 620.50 61.30 626.50 58.50 C 632.50 55.70 637.70 53.20 642.20 50.90 C 646.70 48.60 650.60 46.50 653.90 44.70 C 656.60 52.90 659.90 63.90 662.60 76.90 C 665.30 89.90 667.60 104.80 668.30 120.80 C 669.00 136.80 668.10 153.70 664.70 170.80 C 661.30 187.90 655.20 205.00 645.60 221.40 L 644.50 223.30 L 643.40 225.20 L 642.30 227.10 L 641.20 229.00 L 642.80 231.30 L 644.40 233.60 L 646.00 235.90 L 647.60 238.20 C 648.20 239.10 648.80 240.00 649.50 240.90 C 650.20 241.80 650.70 242.70 651.30 243.60 C 651.90 244.50 652.50 245.40 653.10 246.30 C 653.70 247.20 654.30 248.10 654.80 249.00 C 657.80 253.80 660.80 259.00 663.70 264.30 C 666.60 269.60 669.40 275.20 672.20 281.00 C 675.00 286.80 677.60 292.60 680.10 298.70 C 682.60 304.80 685.00 310.80 687.30 317.00 C 683.00 311.20 678.50 305.70 673.70 300.60 C 668.90 295.50 663.90 290.70 658.70 286.30 C 653.50 281.90 648.10 278.00 642.50 274.50 C 636.90 271.00 631.10 267.90 625.20 265.30 C 616.90 261.70 608.50 259.10 600.10 257.50 C 591.70 255.90 583.10 255.30 574.50 255.70 C 565.90 256.10 557.40 257.50 548.90 259.90 C 540.40 262.30 531.90 265.70 523.60 270.10 C 506.00 279.40 490.70 292.60 477.60 308.10 C 464.50 323.60 453.40 341.50 444.20 360.20 C 434.90 378.80 427.50 398.20 421.50 416.60 C 415.50 435.00 411.00 452.60 407.70 467.70 C 404.40 452.60 399.80 435.10 393.90 416.60 C 388.00 398.10 380.40 378.80 371.20 360.20 C 361.90 341.60 350.90 323.70 337.80 308.10 C 324.70 292.50 309.40 279.30 291.80 270.10 C 283.40 265.70 275.00 262.30 266.50 259.90 C 258.00 257.50 249.40 256.10 240.90 255.70 C 232.40 255.30 223.80 255.90 215.30 257.50 C 206.80 259.10 198.40 261.70 190.20 265.30 C 184.30 267.90 178.50 270.90 172.90 274.50 C 167.30 278.10 161.90 282.00 156.70 286.30 C 151.50 290.60 146.50 295.40 141.70 300.60 C 136.90 305.80 132.40 311.20 128.10 317.00 C 130.40 310.80 132.80 304.70 135.30 298.70 C 137.80 292.70 140.50 286.80 143.20 281.00 C 145.90 275.20 148.80 269.70 151.70 264.30 C 154.60 258.90 157.60 253.80 160.60 249.00 Z M 841.90 438.10 L 840.50 435.60 L 839.10 433.10 L 837.70 430.60 L 836.30 428.10 L 833.50 429.00 L 830.70 429.90 L 827.90 430.80 L 825.10 431.70 C 824.10 432.10 817.10 434.40 806.10 438.80 C 795.10 443.20 780.00 449.40 762.80 457.60 C 745.60 465.80 726.30 475.80 706.70 487.60 C 687.10 499.40 667.30 513.00 649.10 528.30 C 633.50 541.40 620.00 554.20 608.30 566.60 C 596.60 579.00 586.40 591.10 577.50 602.80 C 568.60 614.50 560.90 625.90 553.90 636.90 C 546.90 647.90 540.60 658.60 534.40 668.90 C 527.20 681.00 520.30 692.80 512.70 704.20 C 505.20 715.60 497.00 726.70 487.40 737.60 C 477.80 748.50 466.80 759.20 453.50 769.70 C 440.20 780.20 424.60 790.70 405.90 801.20 C 386.80 811.90 367.00 818.50 347.70 822.30 C 328.40 826.10 309.60 827.10 292.40 826.50 C 275.20 825.90 259.60 823.70 246.70 821.20 C 233.80 818.70 223.70 815.80 217.50 813.90 C 205.90 810.30 195.30 805.80 185.70 801.20 C 176.10 796.60 167.80 791.80 160.90 787.40 C 154.00 783.00 148.50 779.10 144.70 776.30 C 140.90 773.50 138.90 771.70 138.80 771.60 L 136.50 774.30 L 134.20 777.00 L 131.90 779.70 L 129.60 782.40 L 127.30 785.10 L 125.00 787.80 L 122.70 790.50 L 120.40 793.20 C 120.80 793.50 123.20 795.70 127.60 798.90 C 132.00 802.10 138.10 806.60 145.80 811.50 C 153.50 816.40 162.90 821.80 173.50 826.90 C 184.10 832.00 196.10 837.00 209.20 841.10 C 227.60 846.90 246.30 850.90 265.00 853.10 C 283.70 855.30 302.20 855.80 320.30 854.50 C 338.40 853.20 356.00 850.20 372.70 845.40 C 389.40 840.60 405.30 834.20 419.80 826.10 C 437.70 816.10 453.00 806.00 466.30 795.90 C 479.60 785.80 490.90 775.50 500.80 765.10 C 510.70 754.70 519.20 744.30 526.90 733.70 C 534.60 723.10 541.40 712.40 548.00 701.60 L 553.30 701.60 L 555.90 701.40 L 558.50 701.40 C 569.60 701.00 580.20 702.80 590.10 706.40 C 600.00 710.00 609.10 715.20 617.00 721.90 C 624.90 728.60 631.60 736.70 636.70 745.80 C 641.80 754.90 645.30 765.20 646.80 776.10 L 647.20 779.30 L 647.60 782.50 L 648.00 785.70 L 648.40 788.90 L 654.80 788.70 L 661.20 788.50 L 667.60 788.30 L 674.00 788.10 C 684.90 787.80 695.50 789.60 705.30 793.00 C 715.10 796.40 724.10 801.60 731.90 808.20 C 739.70 814.80 746.50 822.70 751.60 831.70 C 756.70 840.70 760.40 850.70 762.10 861.50 C 757.40 866.30 752.50 871.10 747.30 875.90 C 742.10 880.70 736.70 885.50 731.10 890.30 C 725.50 895.10 719.50 899.80 713.40 904.60 C 707.30 909.40 700.80 914.10 694.10 918.80 C 686.70 924.00 678.90 929.00 670.70 933.80 C 662.50 938.60 653.80 943.20 644.70 947.60 C 635.60 952.00 625.90 956.30 615.60 960.40 C 605.30 964.50 594.50 968.50 582.90 972.40 C 569.80 976.80 556.50 980.70 543.10 984.10 C 529.70 987.50 516.20 990.20 502.50 992.50 C 488.80 994.80 475.10 996.40 461.30 997.50 C 447.50 998.60 433.50 999.20 419.60 999.20 C 405.70 999.20 382.60 998.40 364.80 996.80 C 347.00 995.20 329.80 992.70 312.90 989.30 C 296.00 985.90 279.40 981.80 262.90 976.70 C 246.40 971.60 230.20 965.60 214.00 958.70 C 200.60 953.00 187.90 946.70 176.00 940.20 C 164.20 933.80 153.30 927.20 143.60 920.90 C 133.90 914.60 125.40 908.70 118.30 903.50 C 111.20 898.30 105.50 893.90 101.50 890.70 C 90.70 882.00 80.90 872.70 72.30 863.00 C 63.70 853.30 56.20 843.00 50.00 832.50 C 43.80 822.00 38.90 811.20 35.30 800.30 C 31.70 789.40 29.50 778.40 28.80 767.50 C 28.10 756.50 29.30 745.60 31.70 735.30 C 34.10 725.00 37.70 715.10 41.60 706.30 C 45.50 697.50 49.80 689.70 53.70 683.30 C 57.60 676.90 61.00 672.00 63.20 669.00 C 67.70 662.90 73.20 656.80 79.50 650.60 C 85.80 644.40 92.80 638.30 100.30 632.10 C 107.80 625.90 115.80 619.70 124.00 613.60 C 132.20 607.50 140.60 601.30 148.90 595.20 C 153.10 592.10 157.30 589.10 161.30 586.10 C 165.30 583.10 169.40 580.10 173.30 577.20 C 177.20 574.30 181.00 571.30 184.70 568.40 C 188.40 565.50 192.00 562.60 195.50 559.70 C 212.90 545.20 225.50 530.30 234.60 516.10 C 243.70 501.90 249.30 488.30 252.70 476.40 C 256.10 464.50 257.30 454.40 257.60 447.00 C 257.90 439.60 257.40 435.10 257.30 434.40 L 250.30 435.30 L 243.30 436.20 L 236.30 437.10 L 229.30 438.00 C 229.30 438.50 229.70 442.10 229.30 447.80 C 228.90 453.50 227.80 461.50 224.90 470.90 C 222.00 480.30 217.30 491.10 209.70 502.50 C 202.10 513.90 191.80 526.00 177.50 537.80 C 174.20 540.50 170.70 543.30 167.20 546.10 C 163.70 548.90 159.90 551.70 156.10 554.60 C 152.30 557.50 148.40 560.40 144.40 563.30 C 140.40 566.20 136.40 569.20 132.20 572.20 C 123.40 578.60 114.60 585.00 106.00 591.60 C 97.40 598.10 88.90 604.70 80.90 611.30 C 72.90 617.90 65.40 624.70 58.50 631.50 C 51.60 638.30 45.60 645.20 40.40 652.10 C 37.10 656.60 32.70 662.90 28.10 670.60 C 23.50 678.30 18.60 687.60 14.20 697.80 C 9.80 708.00 6.00 719.40 3.40 731.40 C 0.80 743.40 -0.40 756.10 0.50 769.20 C 1.40 782.10 3.90 795.00 8.00 807.70 C 12.10 820.40 17.80 833.10 24.90 845.30 C 32.00 857.50 40.50 869.40 50.40 880.70 C 60.20 892.00 71.40 902.70 83.70 912.60 C 88.90 916.80 95.60 921.90 103.40 927.60 C 111.20 933.30 120.40 939.60 130.50 946.00 C 140.60 952.40 151.90 959.20 164.00 965.70 C 176.10 972.20 189.10 978.60 202.80 984.40 C 219.90 991.70 237.10 998.00 254.40 1003.40 C 271.70 1008.80 289.20 1013.20 307.10 1016.80 C 325.00 1020.40 343.10 1022.90 361.80 1024.70 C 380.50 1026.50 399.70 1027.30 419.50 1027.30 C 439.30 1027.30 448.90 1026.70 463.60 1025.50 C 478.30 1024.30 492.70 1022.50 507.10 1020.20 C 521.50 1017.90 535.80 1014.90 549.90 1011.40 C 564.00 1007.90 578.10 1003.80 591.90 999.10 C 604.10 995.00 615.60 990.70 626.50 986.40 C 637.40 982.10 647.70 977.50 657.40 972.80 C 667.10 968.10 676.40 963.20 685.20 958.10 C 694.00 953.00 702.40 947.60 710.40 942.00 C 746.50 916.60 775.20 890.60 798.00 864.70 C 820.80 838.80 837.70 813.00 850.30 788.00 C 862.90 763.00 871.20 738.90 876.70 716.30 C 882.20 693.70 885.00 672.70 886.60 653.90 C 889.10 624.20 887.70 596.10 884.20 570.60 C 880.70 545.10 875.00 522.20 869.00 502.90 C 863.00 483.60 856.50 467.90 851.50 456.80 C 846.40 445.70 842.80 439.10 842.20 438.10 Z M 858.10 651.50 C 857.00 663.90 855.40 677.30 852.70 691.60 C 850.00 705.90 846.20 721.00 840.80 736.70 C 835.40 752.40 828.30 768.70 819.10 785.40 C 809.90 802.10 798.60 819.10 784.50 836.30 C 780.40 824.80 774.50 814.20 767.30 804.70 C 760.10 795.20 751.40 787.00 741.60 780.30 C 731.80 773.60 721.00 768.30 709.50 764.80 C 698.00 761.30 685.70 759.60 673.00 759.90 L 672.30 759.90 C 669.20 747.60 664.10 736.10 657.50 725.80 C 650.90 715.50 642.60 706.30 633.20 698.70 C 623.80 691.10 613.10 684.90 601.60 680.50 C 590.10 676.10 577.70 673.50 564.90 673.10 C 570.60 663.60 576.50 654.00 582.90 644.20 C 589.30 634.40 596.40 624.50 604.40 614.30 C 612.40 604.10 621.40 593.70 631.70 583.10 C 642.00 572.50 653.70 561.40 667.20 550.10 C 680.90 538.60 695.70 528.10 710.60 518.60 C 725.50 509.10 740.70 500.70 754.90 493.30 C 769.10 485.90 782.60 479.70 794.20 474.60 C 805.80 469.50 815.60 465.60 822.60 463.00 C 825.80 469.70 830.00 479.30 834.50 491.40 C 839.00 503.50 843.70 518.00 847.80 534.50 C 851.90 551.00 855.40 569.30 857.40 589.00 C 859.40 608.70 859.90 629.80 858.00 651.70 Z" stroke-linecap="round" />
</g>
</g>
</g>

  </svg>